<mxfile host="app.diagrams.net" modified="2023-04-21T15:01:48.376Z" agent="Mozilla/5.0 (Windows NT 10.0; Win64; x64) AppleWebKit/537.36 (KHTML, like Gecko) Chrome/112.0.0.0 Safari/537.36 Edg/112.0.1722.48" etag="5wTn0Ldx9qWFFrw95Ddm" version="21.2.1" type="github">
  <diagram id="R2lEEEUBdFMjLlhIrx00" name="Page-1">
    <mxGraphModel dx="2350" dy="819" grid="1" gridSize="10" guides="1" tooltips="1" connect="1" arrows="1" fold="1" page="1" pageScale="1" pageWidth="850" pageHeight="1100" background="#B9E0A5" math="0" shadow="0" extFonts="Permanent Marker^https://fonts.googleapis.com/css?family=Permanent+Marker">
      <root>
        <mxCell id="0" />
        <mxCell id="1" parent="0" />
        <mxCell id="IeB_J5nd6xo2UKHGv0Cv-114" value="User" style="shape=table;startSize=30;container=1;collapsible=1;childLayout=tableLayout;fixedRows=1;rowLines=0;fontStyle=1;align=center;resizeLast=1;fillColor=#dae8fc;strokeColor=#6c8ebf;" vertex="1" parent="1">
          <mxGeometry x="-760" y="80" width="200" height="212" as="geometry" />
        </mxCell>
        <mxCell id="IeB_J5nd6xo2UKHGv0Cv-115" value="" style="shape=tableRow;horizontal=0;startSize=0;swimlaneHead=0;swimlaneBody=0;fillColor=none;collapsible=0;dropTarget=0;points=[[0,0.5],[1,0.5]];portConstraint=eastwest;strokeColor=inherit;top=0;left=0;right=0;bottom=1;" vertex="1" parent="IeB_J5nd6xo2UKHGv0Cv-114">
          <mxGeometry y="30" width="200" height="30" as="geometry" />
        </mxCell>
        <mxCell id="IeB_J5nd6xo2UKHGv0Cv-116" value="PK" style="shape=partialRectangle;overflow=hidden;connectable=0;fillColor=#d5e8d4;strokeColor=#82b366;top=0;left=0;bottom=0;right=0;fontStyle=1;" vertex="1" parent="IeB_J5nd6xo2UKHGv0Cv-115">
          <mxGeometry width="30" height="30" as="geometry">
            <mxRectangle width="30" height="30" as="alternateBounds" />
          </mxGeometry>
        </mxCell>
        <mxCell id="IeB_J5nd6xo2UKHGv0Cv-117" value="user_id INT " style="shape=partialRectangle;overflow=hidden;connectable=0;fillColor=#fff2cc;align=left;strokeColor=#d6b656;top=0;left=0;bottom=0;right=0;spacingLeft=6;fontStyle=5;" vertex="1" parent="IeB_J5nd6xo2UKHGv0Cv-115">
          <mxGeometry x="30" width="170" height="30" as="geometry">
            <mxRectangle width="170" height="30" as="alternateBounds" />
          </mxGeometry>
        </mxCell>
        <mxCell id="IeB_J5nd6xo2UKHGv0Cv-118" value="" style="shape=tableRow;horizontal=0;startSize=0;swimlaneHead=0;swimlaneBody=0;fillColor=none;collapsible=0;dropTarget=0;points=[[0,0.5],[1,0.5]];portConstraint=eastwest;strokeColor=inherit;top=0;left=0;right=0;bottom=0;" vertex="1" parent="IeB_J5nd6xo2UKHGv0Cv-114">
          <mxGeometry y="60" width="200" height="30" as="geometry" />
        </mxCell>
        <mxCell id="IeB_J5nd6xo2UKHGv0Cv-119" value="" style="shape=partialRectangle;overflow=hidden;connectable=0;fillColor=#ffe6cc;strokeColor=#d79b00;top=0;left=0;bottom=0;right=0;" vertex="1" parent="IeB_J5nd6xo2UKHGv0Cv-118">
          <mxGeometry width="30" height="30" as="geometry">
            <mxRectangle width="30" height="30" as="alternateBounds" />
          </mxGeometry>
        </mxCell>
        <mxCell id="IeB_J5nd6xo2UKHGv0Cv-120" value="name " style="shape=partialRectangle;overflow=hidden;connectable=0;fillColor=#ffe6cc;align=left;strokeColor=#d79b00;top=0;left=0;bottom=0;right=0;spacingLeft=6;" vertex="1" parent="IeB_J5nd6xo2UKHGv0Cv-118">
          <mxGeometry x="30" width="170" height="30" as="geometry">
            <mxRectangle width="170" height="30" as="alternateBounds" />
          </mxGeometry>
        </mxCell>
        <mxCell id="IeB_J5nd6xo2UKHGv0Cv-121" value="" style="shape=tableRow;horizontal=0;startSize=0;swimlaneHead=0;swimlaneBody=0;fillColor=#ffe6cc;collapsible=0;dropTarget=0;points=[[0,0.5],[1,0.5]];portConstraint=eastwest;strokeColor=#d79b00;top=0;left=0;right=0;bottom=0;" vertex="1" parent="IeB_J5nd6xo2UKHGv0Cv-114">
          <mxGeometry y="90" width="200" height="30" as="geometry" />
        </mxCell>
        <mxCell id="IeB_J5nd6xo2UKHGv0Cv-122" value="" style="shape=partialRectangle;overflow=hidden;connectable=0;fillColor=#ffe6cc;strokeColor=#d79b00;top=0;left=0;bottom=0;right=0;" vertex="1" parent="IeB_J5nd6xo2UKHGv0Cv-121">
          <mxGeometry width="30" height="30" as="geometry">
            <mxRectangle width="30" height="30" as="alternateBounds" />
          </mxGeometry>
        </mxCell>
        <mxCell id="IeB_J5nd6xo2UKHGv0Cv-123" value="email " style="shape=partialRectangle;overflow=hidden;connectable=0;fillColor=#ffe6cc;align=left;strokeColor=#d79b00;top=0;left=0;bottom=0;right=0;spacingLeft=6;" vertex="1" parent="IeB_J5nd6xo2UKHGv0Cv-121">
          <mxGeometry x="30" width="170" height="30" as="geometry">
            <mxRectangle width="170" height="30" as="alternateBounds" />
          </mxGeometry>
        </mxCell>
        <mxCell id="IeB_J5nd6xo2UKHGv0Cv-124" value="" style="shape=tableRow;horizontal=0;startSize=0;swimlaneHead=0;swimlaneBody=0;fillColor=#ffe6cc;collapsible=0;dropTarget=0;points=[[0,0.5],[1,0.5]];portConstraint=eastwest;strokeColor=#d79b00;top=0;left=0;right=0;bottom=0;" vertex="1" parent="IeB_J5nd6xo2UKHGv0Cv-114">
          <mxGeometry y="120" width="200" height="30" as="geometry" />
        </mxCell>
        <mxCell id="IeB_J5nd6xo2UKHGv0Cv-125" value="" style="shape=partialRectangle;overflow=hidden;connectable=0;fillColor=#ffe6cc;strokeColor=#d79b00;top=0;left=0;bottom=0;right=0;" vertex="1" parent="IeB_J5nd6xo2UKHGv0Cv-124">
          <mxGeometry width="30" height="30" as="geometry">
            <mxRectangle width="30" height="30" as="alternateBounds" />
          </mxGeometry>
        </mxCell>
        <mxCell id="IeB_J5nd6xo2UKHGv0Cv-126" value="password" style="shape=partialRectangle;overflow=hidden;connectable=0;fillColor=#ffe6cc;align=left;strokeColor=#d79b00;top=0;left=0;bottom=0;right=0;spacingLeft=6;" vertex="1" parent="IeB_J5nd6xo2UKHGv0Cv-124">
          <mxGeometry x="30" width="170" height="30" as="geometry">
            <mxRectangle width="170" height="30" as="alternateBounds" />
          </mxGeometry>
        </mxCell>
        <mxCell id="IeB_J5nd6xo2UKHGv0Cv-127" value="" style="shape=tableRow;horizontal=0;startSize=0;swimlaneHead=0;swimlaneBody=0;fillColor=#ffe6cc;collapsible=0;dropTarget=0;points=[[0,0.5],[1,0.5]];portConstraint=eastwest;strokeColor=#d79b00;top=0;left=0;right=0;bottom=0;" vertex="1" parent="IeB_J5nd6xo2UKHGv0Cv-114">
          <mxGeometry y="150" width="200" height="30" as="geometry" />
        </mxCell>
        <mxCell id="IeB_J5nd6xo2UKHGv0Cv-128" value="" style="shape=partialRectangle;overflow=hidden;connectable=0;fillColor=#ffe6cc;strokeColor=#d79b00;top=0;left=0;bottom=0;right=0;" vertex="1" parent="IeB_J5nd6xo2UKHGv0Cv-127">
          <mxGeometry width="30" height="30" as="geometry">
            <mxRectangle width="30" height="30" as="alternateBounds" />
          </mxGeometry>
        </mxCell>
        <mxCell id="IeB_J5nd6xo2UKHGv0Cv-129" value="phone" style="shape=partialRectangle;overflow=hidden;connectable=0;fillColor=#ffe6cc;align=left;strokeColor=#d79b00;top=0;left=0;bottom=0;right=0;spacingLeft=6;" vertex="1" parent="IeB_J5nd6xo2UKHGv0Cv-127">
          <mxGeometry x="30" width="170" height="30" as="geometry">
            <mxRectangle width="170" height="30" as="alternateBounds" />
          </mxGeometry>
        </mxCell>
        <mxCell id="IeB_J5nd6xo2UKHGv0Cv-130" value="" style="shape=tableRow;horizontal=0;startSize=0;swimlaneHead=0;swimlaneBody=0;fillColor=#ffe6cc;collapsible=0;dropTarget=0;points=[[0,0.5],[1,0.5]];portConstraint=eastwest;strokeColor=#d79b00;top=0;left=0;right=0;bottom=0;" vertex="1" parent="IeB_J5nd6xo2UKHGv0Cv-114">
          <mxGeometry y="180" width="200" height="30" as="geometry" />
        </mxCell>
        <mxCell id="IeB_J5nd6xo2UKHGv0Cv-131" value="" style="shape=partialRectangle;overflow=hidden;connectable=0;fillColor=#ffe6cc;strokeColor=#d79b00;top=0;left=0;bottom=0;right=0;" vertex="1" parent="IeB_J5nd6xo2UKHGv0Cv-130">
          <mxGeometry width="30" height="30" as="geometry">
            <mxRectangle width="30" height="30" as="alternateBounds" />
          </mxGeometry>
        </mxCell>
        <mxCell id="IeB_J5nd6xo2UKHGv0Cv-132" value="address " style="shape=partialRectangle;overflow=hidden;connectable=0;fillColor=#ffe6cc;align=left;strokeColor=#d79b00;top=0;left=0;bottom=0;right=0;spacingLeft=6;" vertex="1" parent="IeB_J5nd6xo2UKHGv0Cv-130">
          <mxGeometry x="30" width="170" height="30" as="geometry">
            <mxRectangle width="170" height="30" as="alternateBounds" />
          </mxGeometry>
        </mxCell>
        <mxCell id="IeB_J5nd6xo2UKHGv0Cv-133" value="Car" style="shape=table;startSize=30;container=1;collapsible=1;childLayout=tableLayout;fixedRows=1;rowLines=0;fontStyle=1;align=center;resizeLast=1;fillColor=#dae8fc;strokeColor=#6c8ebf;" vertex="1" parent="1">
          <mxGeometry x="-770" y="710" width="260" height="270" as="geometry" />
        </mxCell>
        <mxCell id="IeB_J5nd6xo2UKHGv0Cv-134" value="" style="shape=tableRow;horizontal=0;startSize=0;swimlaneHead=0;swimlaneBody=0;fillColor=none;collapsible=0;dropTarget=0;points=[[0,0.5],[1,0.5]];portConstraint=eastwest;strokeColor=inherit;top=0;left=0;right=0;bottom=1;" vertex="1" parent="IeB_J5nd6xo2UKHGv0Cv-133">
          <mxGeometry y="30" width="260" height="30" as="geometry" />
        </mxCell>
        <mxCell id="IeB_J5nd6xo2UKHGv0Cv-135" value="PK" style="shape=partialRectangle;overflow=hidden;connectable=0;fillColor=#d5e8d4;strokeColor=#82b366;top=0;left=0;bottom=0;right=0;fontStyle=1;" vertex="1" parent="IeB_J5nd6xo2UKHGv0Cv-134">
          <mxGeometry width="30" height="30" as="geometry">
            <mxRectangle width="30" height="30" as="alternateBounds" />
          </mxGeometry>
        </mxCell>
        <mxCell id="IeB_J5nd6xo2UKHGv0Cv-136" value="car_id INT " style="shape=partialRectangle;overflow=hidden;connectable=0;fillColor=#fff2cc;align=left;strokeColor=#d6b656;top=0;left=0;bottom=0;right=0;spacingLeft=6;fontStyle=5;" vertex="1" parent="IeB_J5nd6xo2UKHGv0Cv-134">
          <mxGeometry x="30" width="230" height="30" as="geometry">
            <mxRectangle width="230" height="30" as="alternateBounds" />
          </mxGeometry>
        </mxCell>
        <mxCell id="IeB_J5nd6xo2UKHGv0Cv-137" value="" style="shape=tableRow;horizontal=0;startSize=0;swimlaneHead=0;swimlaneBody=0;fillColor=none;collapsible=0;dropTarget=0;points=[[0,0.5],[1,0.5]];portConstraint=eastwest;strokeColor=inherit;top=0;left=0;right=0;bottom=0;" vertex="1" parent="IeB_J5nd6xo2UKHGv0Cv-133">
          <mxGeometry y="60" width="260" height="30" as="geometry" />
        </mxCell>
        <mxCell id="IeB_J5nd6xo2UKHGv0Cv-138" value="" style="shape=partialRectangle;overflow=hidden;connectable=0;fillColor=#ffe6cc;strokeColor=#d79b00;top=0;left=0;bottom=0;right=0;" vertex="1" parent="IeB_J5nd6xo2UKHGv0Cv-137">
          <mxGeometry width="30" height="30" as="geometry">
            <mxRectangle width="30" height="30" as="alternateBounds" />
          </mxGeometry>
        </mxCell>
        <mxCell id="IeB_J5nd6xo2UKHGv0Cv-139" value="make" style="shape=partialRectangle;overflow=hidden;connectable=0;fillColor=#ffe6cc;align=left;strokeColor=#d79b00;top=0;left=0;bottom=0;right=0;spacingLeft=6;" vertex="1" parent="IeB_J5nd6xo2UKHGv0Cv-137">
          <mxGeometry x="30" width="230" height="30" as="geometry">
            <mxRectangle width="230" height="30" as="alternateBounds" />
          </mxGeometry>
        </mxCell>
        <mxCell id="IeB_J5nd6xo2UKHGv0Cv-140" value="" style="shape=tableRow;horizontal=0;startSize=0;swimlaneHead=0;swimlaneBody=0;fillColor=none;collapsible=0;dropTarget=0;points=[[0,0.5],[1,0.5]];portConstraint=eastwest;strokeColor=inherit;top=0;left=0;right=0;bottom=0;" vertex="1" parent="IeB_J5nd6xo2UKHGv0Cv-133">
          <mxGeometry y="90" width="260" height="30" as="geometry" />
        </mxCell>
        <mxCell id="IeB_J5nd6xo2UKHGv0Cv-141" value="" style="shape=partialRectangle;overflow=hidden;connectable=0;fillColor=#ffe6cc;strokeColor=#d79b00;top=0;left=0;bottom=0;right=0;" vertex="1" parent="IeB_J5nd6xo2UKHGv0Cv-140">
          <mxGeometry width="30" height="30" as="geometry">
            <mxRectangle width="30" height="30" as="alternateBounds" />
          </mxGeometry>
        </mxCell>
        <mxCell id="IeB_J5nd6xo2UKHGv0Cv-142" value="model " style="shape=partialRectangle;overflow=hidden;connectable=0;fillColor=#ffe6cc;align=left;strokeColor=#d79b00;top=0;left=0;bottom=0;right=0;spacingLeft=6;" vertex="1" parent="IeB_J5nd6xo2UKHGv0Cv-140">
          <mxGeometry x="30" width="230" height="30" as="geometry">
            <mxRectangle width="230" height="30" as="alternateBounds" />
          </mxGeometry>
        </mxCell>
        <mxCell id="IeB_J5nd6xo2UKHGv0Cv-143" value="" style="shape=tableRow;horizontal=0;startSize=0;swimlaneHead=0;swimlaneBody=0;fillColor=none;collapsible=0;dropTarget=0;points=[[0,0.5],[1,0.5]];portConstraint=eastwest;strokeColor=inherit;top=0;left=0;right=0;bottom=0;" vertex="1" parent="IeB_J5nd6xo2UKHGv0Cv-133">
          <mxGeometry y="120" width="260" height="30" as="geometry" />
        </mxCell>
        <mxCell id="IeB_J5nd6xo2UKHGv0Cv-144" value="" style="shape=partialRectangle;overflow=hidden;connectable=0;fillColor=#ffe6cc;strokeColor=#d79b00;top=0;left=0;bottom=0;right=0;" vertex="1" parent="IeB_J5nd6xo2UKHGv0Cv-143">
          <mxGeometry width="30" height="30" as="geometry">
            <mxRectangle width="30" height="30" as="alternateBounds" />
          </mxGeometry>
        </mxCell>
        <mxCell id="IeB_J5nd6xo2UKHGv0Cv-145" value="year " style="shape=partialRectangle;overflow=hidden;connectable=0;fillColor=#ffe6cc;align=left;strokeColor=#d79b00;top=0;left=0;bottom=0;right=0;spacingLeft=6;" vertex="1" parent="IeB_J5nd6xo2UKHGv0Cv-143">
          <mxGeometry x="30" width="230" height="30" as="geometry">
            <mxRectangle width="230" height="30" as="alternateBounds" />
          </mxGeometry>
        </mxCell>
        <mxCell id="IeB_J5nd6xo2UKHGv0Cv-146" value="" style="shape=tableRow;horizontal=0;startSize=0;swimlaneHead=0;swimlaneBody=0;fillColor=none;collapsible=0;dropTarget=0;points=[[0,0.5],[1,0.5]];portConstraint=eastwest;strokeColor=inherit;top=0;left=0;right=0;bottom=0;" vertex="1" parent="IeB_J5nd6xo2UKHGv0Cv-133">
          <mxGeometry y="150" width="260" height="30" as="geometry" />
        </mxCell>
        <mxCell id="IeB_J5nd6xo2UKHGv0Cv-147" value="" style="shape=partialRectangle;overflow=hidden;connectable=0;fillColor=#ffe6cc;strokeColor=#d79b00;top=0;left=0;bottom=0;right=0;" vertex="1" parent="IeB_J5nd6xo2UKHGv0Cv-146">
          <mxGeometry width="30" height="30" as="geometry">
            <mxRectangle width="30" height="30" as="alternateBounds" />
          </mxGeometry>
        </mxCell>
        <mxCell id="IeB_J5nd6xo2UKHGv0Cv-148" value="color " style="shape=partialRectangle;overflow=hidden;connectable=0;fillColor=#ffe6cc;align=left;strokeColor=#d79b00;top=0;left=0;bottom=0;right=0;spacingLeft=6;" vertex="1" parent="IeB_J5nd6xo2UKHGv0Cv-146">
          <mxGeometry x="30" width="230" height="30" as="geometry">
            <mxRectangle width="230" height="30" as="alternateBounds" />
          </mxGeometry>
        </mxCell>
        <mxCell id="IeB_J5nd6xo2UKHGv0Cv-149" value="" style="shape=tableRow;horizontal=0;startSize=0;swimlaneHead=0;swimlaneBody=0;fillColor=none;collapsible=0;dropTarget=0;points=[[0,0.5],[1,0.5]];portConstraint=eastwest;strokeColor=inherit;top=0;left=0;right=0;bottom=0;" vertex="1" parent="IeB_J5nd6xo2UKHGv0Cv-133">
          <mxGeometry y="180" width="260" height="30" as="geometry" />
        </mxCell>
        <mxCell id="IeB_J5nd6xo2UKHGv0Cv-150" value="" style="shape=partialRectangle;overflow=hidden;connectable=0;fillColor=#ffe6cc;strokeColor=#d79b00;top=0;left=0;bottom=0;right=0;" vertex="1" parent="IeB_J5nd6xo2UKHGv0Cv-149">
          <mxGeometry width="30" height="30" as="geometry">
            <mxRectangle width="30" height="30" as="alternateBounds" />
          </mxGeometry>
        </mxCell>
        <mxCell id="IeB_J5nd6xo2UKHGv0Cv-151" value="registration_number " style="shape=partialRectangle;overflow=hidden;connectable=0;fillColor=#ffe6cc;align=left;strokeColor=#d79b00;top=0;left=0;bottom=0;right=0;spacingLeft=6;" vertex="1" parent="IeB_J5nd6xo2UKHGv0Cv-149">
          <mxGeometry x="30" width="230" height="30" as="geometry">
            <mxRectangle width="230" height="30" as="alternateBounds" />
          </mxGeometry>
        </mxCell>
        <mxCell id="IeB_J5nd6xo2UKHGv0Cv-152" value="" style="shape=tableRow;horizontal=0;startSize=0;swimlaneHead=0;swimlaneBody=0;fillColor=none;collapsible=0;dropTarget=0;points=[[0,0.5],[1,0.5]];portConstraint=eastwest;strokeColor=inherit;top=0;left=0;right=0;bottom=0;" vertex="1" parent="IeB_J5nd6xo2UKHGv0Cv-133">
          <mxGeometry y="210" width="260" height="30" as="geometry" />
        </mxCell>
        <mxCell id="IeB_J5nd6xo2UKHGv0Cv-153" value="" style="shape=partialRectangle;overflow=hidden;connectable=0;fillColor=#ffe6cc;strokeColor=#d79b00;top=0;left=0;bottom=0;right=0;" vertex="1" parent="IeB_J5nd6xo2UKHGv0Cv-152">
          <mxGeometry width="30" height="30" as="geometry">
            <mxRectangle width="30" height="30" as="alternateBounds" />
          </mxGeometry>
        </mxCell>
        <mxCell id="IeB_J5nd6xo2UKHGv0Cv-154" value="rental_price_per_day " style="shape=partialRectangle;overflow=hidden;connectable=0;fillColor=#ffe6cc;align=left;strokeColor=#d79b00;top=0;left=0;bottom=0;right=0;spacingLeft=6;" vertex="1" parent="IeB_J5nd6xo2UKHGv0Cv-152">
          <mxGeometry x="30" width="230" height="30" as="geometry">
            <mxRectangle width="230" height="30" as="alternateBounds" />
          </mxGeometry>
        </mxCell>
        <mxCell id="IeB_J5nd6xo2UKHGv0Cv-155" value="" style="shape=tableRow;horizontal=0;startSize=0;swimlaneHead=0;swimlaneBody=0;fillColor=none;collapsible=0;dropTarget=0;points=[[0,0.5],[1,0.5]];portConstraint=eastwest;strokeColor=inherit;top=0;left=0;right=0;bottom=0;" vertex="1" parent="IeB_J5nd6xo2UKHGv0Cv-133">
          <mxGeometry y="240" width="260" height="30" as="geometry" />
        </mxCell>
        <mxCell id="IeB_J5nd6xo2UKHGv0Cv-156" value="" style="shape=partialRectangle;overflow=hidden;connectable=0;fillColor=#ffe6cc;strokeColor=#d79b00;top=0;left=0;bottom=0;right=0;" vertex="1" parent="IeB_J5nd6xo2UKHGv0Cv-155">
          <mxGeometry width="30" height="30" as="geometry">
            <mxRectangle width="30" height="30" as="alternateBounds" />
          </mxGeometry>
        </mxCell>
        <mxCell id="IeB_J5nd6xo2UKHGv0Cv-157" value="   location " style="shape=partialRectangle;overflow=hidden;connectable=0;fillColor=#ffe6cc;align=left;strokeColor=#d79b00;top=0;left=0;bottom=0;right=0;spacingLeft=6;" vertex="1" parent="IeB_J5nd6xo2UKHGv0Cv-155">
          <mxGeometry x="30" width="230" height="30" as="geometry">
            <mxRectangle width="230" height="30" as="alternateBounds" />
          </mxGeometry>
        </mxCell>
        <mxCell id="IeB_J5nd6xo2UKHGv0Cv-158" value="Driver" style="shape=table;startSize=30;container=1;collapsible=1;childLayout=tableLayout;fixedRows=1;rowLines=0;fontStyle=1;align=center;resizeLast=1;fillColor=#dae8fc;strokeColor=#6c8ebf;" vertex="1" parent="1">
          <mxGeometry x="-755" y="410" width="190" height="180" as="geometry" />
        </mxCell>
        <mxCell id="IeB_J5nd6xo2UKHGv0Cv-159" value="" style="shape=tableRow;horizontal=0;startSize=0;swimlaneHead=0;swimlaneBody=0;fillColor=none;collapsible=0;dropTarget=0;points=[[0,0.5],[1,0.5]];portConstraint=eastwest;strokeColor=inherit;top=0;left=0;right=0;bottom=1;" vertex="1" parent="IeB_J5nd6xo2UKHGv0Cv-158">
          <mxGeometry y="30" width="190" height="30" as="geometry" />
        </mxCell>
        <mxCell id="IeB_J5nd6xo2UKHGv0Cv-160" value="PK" style="shape=partialRectangle;overflow=hidden;connectable=0;fillColor=#d5e8d4;strokeColor=#82b366;top=0;left=0;bottom=0;right=0;fontStyle=1;" vertex="1" parent="IeB_J5nd6xo2UKHGv0Cv-159">
          <mxGeometry width="30" height="30" as="geometry">
            <mxRectangle width="30" height="30" as="alternateBounds" />
          </mxGeometry>
        </mxCell>
        <mxCell id="IeB_J5nd6xo2UKHGv0Cv-161" value="driver_id INT " style="shape=partialRectangle;overflow=hidden;connectable=0;fillColor=#fff2cc;align=left;strokeColor=#d6b656;top=0;left=0;bottom=0;right=0;spacingLeft=6;fontStyle=5;" vertex="1" parent="IeB_J5nd6xo2UKHGv0Cv-159">
          <mxGeometry x="30" width="160" height="30" as="geometry">
            <mxRectangle width="160" height="30" as="alternateBounds" />
          </mxGeometry>
        </mxCell>
        <mxCell id="IeB_J5nd6xo2UKHGv0Cv-162" value="" style="shape=tableRow;horizontal=0;startSize=0;swimlaneHead=0;swimlaneBody=0;fillColor=none;collapsible=0;dropTarget=0;points=[[0,0.5],[1,0.5]];portConstraint=eastwest;strokeColor=inherit;top=0;left=0;right=0;bottom=0;" vertex="1" parent="IeB_J5nd6xo2UKHGv0Cv-158">
          <mxGeometry y="60" width="190" height="30" as="geometry" />
        </mxCell>
        <mxCell id="IeB_J5nd6xo2UKHGv0Cv-163" value="" style="shape=partialRectangle;overflow=hidden;connectable=0;fillColor=#ffe6cc;strokeColor=#d79b00;top=0;left=0;bottom=0;right=0;" vertex="1" parent="IeB_J5nd6xo2UKHGv0Cv-162">
          <mxGeometry width="30" height="30" as="geometry">
            <mxRectangle width="30" height="30" as="alternateBounds" />
          </mxGeometry>
        </mxCell>
        <mxCell id="IeB_J5nd6xo2UKHGv0Cv-164" value="name" style="shape=partialRectangle;overflow=hidden;connectable=0;fillColor=#ffe6cc;align=left;strokeColor=#d79b00;top=0;left=0;bottom=0;right=0;spacingLeft=6;" vertex="1" parent="IeB_J5nd6xo2UKHGv0Cv-162">
          <mxGeometry x="30" width="160" height="30" as="geometry">
            <mxRectangle width="160" height="30" as="alternateBounds" />
          </mxGeometry>
        </mxCell>
        <mxCell id="IeB_J5nd6xo2UKHGv0Cv-165" value="" style="shape=tableRow;horizontal=0;startSize=0;swimlaneHead=0;swimlaneBody=0;fillColor=none;collapsible=0;dropTarget=0;points=[[0,0.5],[1,0.5]];portConstraint=eastwest;strokeColor=inherit;top=0;left=0;right=0;bottom=0;" vertex="1" parent="IeB_J5nd6xo2UKHGv0Cv-158">
          <mxGeometry y="90" width="190" height="30" as="geometry" />
        </mxCell>
        <mxCell id="IeB_J5nd6xo2UKHGv0Cv-166" value="" style="shape=partialRectangle;overflow=hidden;connectable=0;fillColor=#ffe6cc;strokeColor=#d79b00;top=0;left=0;bottom=0;right=0;" vertex="1" parent="IeB_J5nd6xo2UKHGv0Cv-165">
          <mxGeometry width="30" height="30" as="geometry">
            <mxRectangle width="30" height="30" as="alternateBounds" />
          </mxGeometry>
        </mxCell>
        <mxCell id="IeB_J5nd6xo2UKHGv0Cv-167" value="photo" style="shape=partialRectangle;overflow=hidden;connectable=0;fillColor=#ffe6cc;align=left;strokeColor=#d79b00;top=0;left=0;bottom=0;right=0;spacingLeft=6;" vertex="1" parent="IeB_J5nd6xo2UKHGv0Cv-165">
          <mxGeometry x="30" width="160" height="30" as="geometry">
            <mxRectangle width="160" height="30" as="alternateBounds" />
          </mxGeometry>
        </mxCell>
        <mxCell id="IeB_J5nd6xo2UKHGv0Cv-168" value="" style="shape=tableRow;horizontal=0;startSize=0;swimlaneHead=0;swimlaneBody=0;fillColor=none;collapsible=0;dropTarget=0;points=[[0,0.5],[1,0.5]];portConstraint=eastwest;strokeColor=inherit;top=0;left=0;right=0;bottom=0;" vertex="1" parent="IeB_J5nd6xo2UKHGv0Cv-158">
          <mxGeometry y="120" width="190" height="30" as="geometry" />
        </mxCell>
        <mxCell id="IeB_J5nd6xo2UKHGv0Cv-169" value="" style="shape=partialRectangle;overflow=hidden;connectable=0;fillColor=#ffe6cc;strokeColor=#d79b00;top=0;left=0;bottom=0;right=0;" vertex="1" parent="IeB_J5nd6xo2UKHGv0Cv-168">
          <mxGeometry width="30" height="30" as="geometry">
            <mxRectangle width="30" height="30" as="alternateBounds" />
          </mxGeometry>
        </mxCell>
        <mxCell id="IeB_J5nd6xo2UKHGv0Cv-170" value="rating " style="shape=partialRectangle;overflow=hidden;connectable=0;fillColor=#ffe6cc;align=left;strokeColor=#d79b00;top=0;left=0;bottom=0;right=0;spacingLeft=6;" vertex="1" parent="IeB_J5nd6xo2UKHGv0Cv-168">
          <mxGeometry x="30" width="160" height="30" as="geometry">
            <mxRectangle width="160" height="30" as="alternateBounds" />
          </mxGeometry>
        </mxCell>
        <mxCell id="IeB_J5nd6xo2UKHGv0Cv-171" value="" style="shape=tableRow;horizontal=0;startSize=0;swimlaneHead=0;swimlaneBody=0;fillColor=none;collapsible=0;dropTarget=0;points=[[0,0.5],[1,0.5]];portConstraint=eastwest;strokeColor=inherit;top=0;left=0;right=0;bottom=0;" vertex="1" parent="IeB_J5nd6xo2UKHGv0Cv-158">
          <mxGeometry y="150" width="190" height="30" as="geometry" />
        </mxCell>
        <mxCell id="IeB_J5nd6xo2UKHGv0Cv-172" value="" style="shape=partialRectangle;overflow=hidden;connectable=0;fillColor=#ffe6cc;strokeColor=#d79b00;top=0;left=0;bottom=0;right=0;" vertex="1" parent="IeB_J5nd6xo2UKHGv0Cv-171">
          <mxGeometry width="30" height="30" as="geometry">
            <mxRectangle width="30" height="30" as="alternateBounds" />
          </mxGeometry>
        </mxCell>
        <mxCell id="IeB_J5nd6xo2UKHGv0Cv-173" value="location " style="shape=partialRectangle;overflow=hidden;connectable=0;fillColor=#ffe6cc;align=left;strokeColor=#d79b00;top=0;left=0;bottom=0;right=0;spacingLeft=6;" vertex="1" parent="IeB_J5nd6xo2UKHGv0Cv-171">
          <mxGeometry x="30" width="160" height="30" as="geometry">
            <mxRectangle width="160" height="30" as="alternateBounds" />
          </mxGeometry>
        </mxCell>
        <mxCell id="IeB_J5nd6xo2UKHGv0Cv-174" value="Booking" style="shape=table;startSize=30;container=1;collapsible=1;childLayout=tableLayout;fixedRows=1;rowLines=0;fontStyle=1;align=center;resizeLast=1;fillColor=#dae8fc;strokeColor=#6c8ebf;" vertex="1" parent="1">
          <mxGeometry x="-410" y="710" width="320" height="270" as="geometry" />
        </mxCell>
        <mxCell id="IeB_J5nd6xo2UKHGv0Cv-175" value="" style="shape=tableRow;horizontal=0;startSize=0;swimlaneHead=0;swimlaneBody=0;fillColor=none;collapsible=0;dropTarget=0;points=[[0,0.5],[1,0.5]];portConstraint=eastwest;strokeColor=inherit;top=0;left=0;right=0;bottom=1;" vertex="1" parent="IeB_J5nd6xo2UKHGv0Cv-174">
          <mxGeometry y="30" width="320" height="30" as="geometry" />
        </mxCell>
        <mxCell id="IeB_J5nd6xo2UKHGv0Cv-176" value="FK" style="shape=partialRectangle;overflow=hidden;connectable=0;fillColor=#e1d5e7;strokeColor=#9673a6;top=0;left=0;bottom=0;right=0;fontStyle=1;" vertex="1" parent="IeB_J5nd6xo2UKHGv0Cv-175">
          <mxGeometry width="30" height="30" as="geometry">
            <mxRectangle width="30" height="30" as="alternateBounds" />
          </mxGeometry>
        </mxCell>
        <mxCell id="IeB_J5nd6xo2UKHGv0Cv-177" value="driver_id " style="shape=partialRectangle;overflow=hidden;connectable=0;fillColor=#fff2cc;align=left;strokeColor=#d6b656;top=0;left=0;bottom=0;right=0;spacingLeft=6;fontStyle=5;" vertex="1" parent="IeB_J5nd6xo2UKHGv0Cv-175">
          <mxGeometry x="30" width="290" height="30" as="geometry">
            <mxRectangle width="290" height="30" as="alternateBounds" />
          </mxGeometry>
        </mxCell>
        <mxCell id="IeB_J5nd6xo2UKHGv0Cv-178" value="" style="shape=tableRow;horizontal=0;startSize=0;swimlaneHead=0;swimlaneBody=0;fillColor=none;collapsible=0;dropTarget=0;points=[[0,0.5],[1,0.5]];portConstraint=eastwest;strokeColor=inherit;top=0;left=0;right=0;bottom=1;" vertex="1" parent="IeB_J5nd6xo2UKHGv0Cv-174">
          <mxGeometry y="60" width="320" height="30" as="geometry" />
        </mxCell>
        <mxCell id="IeB_J5nd6xo2UKHGv0Cv-179" value="FK" style="shape=partialRectangle;overflow=hidden;connectable=0;fillColor=#e1d5e7;strokeColor=#9673a6;top=0;left=0;bottom=0;right=0;fontStyle=1;" vertex="1" parent="IeB_J5nd6xo2UKHGv0Cv-178">
          <mxGeometry width="30" height="30" as="geometry">
            <mxRectangle width="30" height="30" as="alternateBounds" />
          </mxGeometry>
        </mxCell>
        <mxCell id="IeB_J5nd6xo2UKHGv0Cv-180" value="car_id " style="shape=partialRectangle;overflow=hidden;connectable=0;fillColor=#fff2cc;align=left;strokeColor=#d6b656;top=0;left=0;bottom=0;right=0;spacingLeft=6;fontStyle=5;" vertex="1" parent="IeB_J5nd6xo2UKHGv0Cv-178">
          <mxGeometry x="30" width="290" height="30" as="geometry">
            <mxRectangle width="290" height="30" as="alternateBounds" />
          </mxGeometry>
        </mxCell>
        <mxCell id="IeB_J5nd6xo2UKHGv0Cv-181" value="" style="shape=tableRow;horizontal=0;startSize=0;swimlaneHead=0;swimlaneBody=0;fillColor=none;collapsible=0;dropTarget=0;points=[[0,0.5],[1,0.5]];portConstraint=eastwest;strokeColor=inherit;top=0;left=0;right=0;bottom=1;" vertex="1" parent="IeB_J5nd6xo2UKHGv0Cv-174">
          <mxGeometry y="90" width="320" height="30" as="geometry" />
        </mxCell>
        <mxCell id="IeB_J5nd6xo2UKHGv0Cv-182" value="FK" style="shape=partialRectangle;overflow=hidden;connectable=0;fillColor=#e1d5e7;strokeColor=#9673a6;top=0;left=0;bottom=0;right=0;fontStyle=1;" vertex="1" parent="IeB_J5nd6xo2UKHGv0Cv-181">
          <mxGeometry width="30" height="30" as="geometry">
            <mxRectangle width="30" height="30" as="alternateBounds" />
          </mxGeometry>
        </mxCell>
        <mxCell id="IeB_J5nd6xo2UKHGv0Cv-183" value="user_id" style="shape=partialRectangle;overflow=hidden;connectable=0;fillColor=#fff2cc;align=left;strokeColor=#d6b656;top=0;left=0;bottom=0;right=0;spacingLeft=6;fontStyle=5;" vertex="1" parent="IeB_J5nd6xo2UKHGv0Cv-181">
          <mxGeometry x="30" width="290" height="30" as="geometry">
            <mxRectangle width="290" height="30" as="alternateBounds" />
          </mxGeometry>
        </mxCell>
        <mxCell id="IeB_J5nd6xo2UKHGv0Cv-184" value="" style="shape=tableRow;horizontal=0;startSize=0;swimlaneHead=0;swimlaneBody=0;fillColor=none;collapsible=0;dropTarget=0;points=[[0,0.5],[1,0.5]];portConstraint=eastwest;strokeColor=inherit;top=0;left=0;right=0;bottom=1;" vertex="1" parent="IeB_J5nd6xo2UKHGv0Cv-174">
          <mxGeometry y="120" width="320" height="30" as="geometry" />
        </mxCell>
        <mxCell id="IeB_J5nd6xo2UKHGv0Cv-185" value="PK" style="shape=partialRectangle;overflow=hidden;connectable=0;fillColor=#d5e8d4;strokeColor=#82b366;top=0;left=0;bottom=0;right=0;fontStyle=1;" vertex="1" parent="IeB_J5nd6xo2UKHGv0Cv-184">
          <mxGeometry width="30" height="30" as="geometry">
            <mxRectangle width="30" height="30" as="alternateBounds" />
          </mxGeometry>
        </mxCell>
        <mxCell id="IeB_J5nd6xo2UKHGv0Cv-186" value="booking_id " style="shape=partialRectangle;overflow=hidden;connectable=0;fillColor=#fff2cc;align=left;strokeColor=#d6b656;top=0;left=0;bottom=0;right=0;spacingLeft=6;fontStyle=5;" vertex="1" parent="IeB_J5nd6xo2UKHGv0Cv-184">
          <mxGeometry x="30" width="290" height="30" as="geometry">
            <mxRectangle width="290" height="30" as="alternateBounds" />
          </mxGeometry>
        </mxCell>
        <mxCell id="IeB_J5nd6xo2UKHGv0Cv-187" value="" style="shape=tableRow;horizontal=0;startSize=0;swimlaneHead=0;swimlaneBody=0;fillColor=none;collapsible=0;dropTarget=0;points=[[0,0.5],[1,0.5]];portConstraint=eastwest;strokeColor=inherit;top=0;left=0;right=0;bottom=0;" vertex="1" parent="IeB_J5nd6xo2UKHGv0Cv-174">
          <mxGeometry y="150" width="320" height="30" as="geometry" />
        </mxCell>
        <mxCell id="IeB_J5nd6xo2UKHGv0Cv-188" value="" style="shape=partialRectangle;overflow=hidden;connectable=0;fillColor=#ffe6cc;strokeColor=#d79b00;top=0;left=0;bottom=0;right=0;" vertex="1" parent="IeB_J5nd6xo2UKHGv0Cv-187">
          <mxGeometry width="30" height="30" as="geometry">
            <mxRectangle width="30" height="30" as="alternateBounds" />
          </mxGeometry>
        </mxCell>
        <mxCell id="IeB_J5nd6xo2UKHGv0Cv-189" value="booking_type " style="shape=partialRectangle;overflow=hidden;connectable=0;fillColor=#ffe6cc;align=left;strokeColor=#d79b00;top=0;left=0;bottom=0;right=0;spacingLeft=6;" vertex="1" parent="IeB_J5nd6xo2UKHGv0Cv-187">
          <mxGeometry x="30" width="290" height="30" as="geometry">
            <mxRectangle width="290" height="30" as="alternateBounds" />
          </mxGeometry>
        </mxCell>
        <mxCell id="IeB_J5nd6xo2UKHGv0Cv-190" value="" style="shape=tableRow;horizontal=0;startSize=0;swimlaneHead=0;swimlaneBody=0;fillColor=none;collapsible=0;dropTarget=0;points=[[0,0.5],[1,0.5]];portConstraint=eastwest;strokeColor=inherit;top=0;left=0;right=0;bottom=0;" vertex="1" parent="IeB_J5nd6xo2UKHGv0Cv-174">
          <mxGeometry y="180" width="320" height="30" as="geometry" />
        </mxCell>
        <mxCell id="IeB_J5nd6xo2UKHGv0Cv-191" value="" style="shape=partialRectangle;overflow=hidden;connectable=0;fillColor=#ffe6cc;strokeColor=#d79b00;top=0;left=0;bottom=0;right=0;" vertex="1" parent="IeB_J5nd6xo2UKHGv0Cv-190">
          <mxGeometry width="30" height="30" as="geometry">
            <mxRectangle width="30" height="30" as="alternateBounds" />
          </mxGeometry>
        </mxCell>
        <mxCell id="IeB_J5nd6xo2UKHGv0Cv-192" value="booking_date " style="shape=partialRectangle;overflow=hidden;connectable=0;fillColor=#ffe6cc;align=left;strokeColor=#d79b00;top=0;left=0;bottom=0;right=0;spacingLeft=6;" vertex="1" parent="IeB_J5nd6xo2UKHGv0Cv-190">
          <mxGeometry x="30" width="290" height="30" as="geometry">
            <mxRectangle width="290" height="30" as="alternateBounds" />
          </mxGeometry>
        </mxCell>
        <mxCell id="IeB_J5nd6xo2UKHGv0Cv-193" value="" style="shape=tableRow;horizontal=0;startSize=0;swimlaneHead=0;swimlaneBody=0;fillColor=none;collapsible=0;dropTarget=0;points=[[0,0.5],[1,0.5]];portConstraint=eastwest;strokeColor=inherit;top=0;left=0;right=0;bottom=0;" vertex="1" parent="IeB_J5nd6xo2UKHGv0Cv-174">
          <mxGeometry y="210" width="320" height="30" as="geometry" />
        </mxCell>
        <mxCell id="IeB_J5nd6xo2UKHGv0Cv-194" value="" style="shape=partialRectangle;overflow=hidden;connectable=0;fillColor=#ffe6cc;strokeColor=#d79b00;top=0;left=0;bottom=0;right=0;" vertex="1" parent="IeB_J5nd6xo2UKHGv0Cv-193">
          <mxGeometry width="30" height="30" as="geometry">
            <mxRectangle width="30" height="30" as="alternateBounds" />
          </mxGeometry>
        </mxCell>
        <mxCell id="IeB_J5nd6xo2UKHGv0Cv-195" value="start_date " style="shape=partialRectangle;overflow=hidden;connectable=0;fillColor=#ffe6cc;align=left;strokeColor=#d79b00;top=0;left=0;bottom=0;right=0;spacingLeft=6;" vertex="1" parent="IeB_J5nd6xo2UKHGv0Cv-193">
          <mxGeometry x="30" width="290" height="30" as="geometry">
            <mxRectangle width="290" height="30" as="alternateBounds" />
          </mxGeometry>
        </mxCell>
        <mxCell id="IeB_J5nd6xo2UKHGv0Cv-196" value="" style="shape=tableRow;horizontal=0;startSize=0;swimlaneHead=0;swimlaneBody=0;fillColor=none;collapsible=0;dropTarget=0;points=[[0,0.5],[1,0.5]];portConstraint=eastwest;strokeColor=inherit;top=0;left=0;right=0;bottom=0;" vertex="1" parent="IeB_J5nd6xo2UKHGv0Cv-174">
          <mxGeometry y="240" width="320" height="30" as="geometry" />
        </mxCell>
        <mxCell id="IeB_J5nd6xo2UKHGv0Cv-197" value="" style="shape=partialRectangle;overflow=hidden;connectable=0;fillColor=#ffe6cc;strokeColor=#d79b00;top=0;left=0;bottom=0;right=0;" vertex="1" parent="IeB_J5nd6xo2UKHGv0Cv-196">
          <mxGeometry width="30" height="30" as="geometry">
            <mxRectangle width="30" height="30" as="alternateBounds" />
          </mxGeometry>
        </mxCell>
        <mxCell id="IeB_J5nd6xo2UKHGv0Cv-198" value="end_date " style="shape=partialRectangle;overflow=hidden;connectable=0;fillColor=#ffe6cc;align=left;strokeColor=#d79b00;top=0;left=0;bottom=0;right=0;spacingLeft=6;" vertex="1" parent="IeB_J5nd6xo2UKHGv0Cv-196">
          <mxGeometry x="30" width="290" height="30" as="geometry">
            <mxRectangle width="290" height="30" as="alternateBounds" />
          </mxGeometry>
        </mxCell>
        <mxCell id="IeB_J5nd6xo2UKHGv0Cv-208" value="Payment" style="shape=table;startSize=30;container=1;collapsible=1;childLayout=tableLayout;fixedRows=1;rowLines=0;fontStyle=1;align=center;resizeLast=1;fillColor=#dae8fc;strokeColor=#6c8ebf;" vertex="1" parent="1">
          <mxGeometry x="-425" y="140" width="319" height="180" as="geometry" />
        </mxCell>
        <mxCell id="IeB_J5nd6xo2UKHGv0Cv-209" value="" style="shape=tableRow;horizontal=0;startSize=0;swimlaneHead=0;swimlaneBody=0;fillColor=none;collapsible=0;dropTarget=0;points=[[0,0.5],[1,0.5]];portConstraint=eastwest;strokeColor=inherit;top=0;left=0;right=0;bottom=1;" vertex="1" parent="IeB_J5nd6xo2UKHGv0Cv-208">
          <mxGeometry y="30" width="319" height="30" as="geometry" />
        </mxCell>
        <mxCell id="IeB_J5nd6xo2UKHGv0Cv-210" value="FK" style="shape=partialRectangle;overflow=hidden;connectable=0;fillColor=#e1d5e7;strokeColor=#9673a6;top=0;left=0;bottom=0;right=0;fontStyle=1;" vertex="1" parent="IeB_J5nd6xo2UKHGv0Cv-209">
          <mxGeometry width="30" height="30" as="geometry">
            <mxRectangle width="30" height="30" as="alternateBounds" />
          </mxGeometry>
        </mxCell>
        <mxCell id="IeB_J5nd6xo2UKHGv0Cv-211" value="booking_id INT" style="shape=partialRectangle;overflow=hidden;connectable=0;fillColor=#ffe6cc;align=left;strokeColor=#d79b00;top=0;left=0;bottom=0;right=0;spacingLeft=6;fontStyle=5;" vertex="1" parent="IeB_J5nd6xo2UKHGv0Cv-209">
          <mxGeometry x="30" width="289" height="30" as="geometry">
            <mxRectangle width="289" height="30" as="alternateBounds" />
          </mxGeometry>
        </mxCell>
        <mxCell id="IeB_J5nd6xo2UKHGv0Cv-212" value="" style="shape=tableRow;horizontal=0;startSize=0;swimlaneHead=0;swimlaneBody=0;fillColor=none;collapsible=0;dropTarget=0;points=[[0,0.5],[1,0.5]];portConstraint=eastwest;strokeColor=inherit;top=0;left=0;right=0;bottom=1;" vertex="1" parent="IeB_J5nd6xo2UKHGv0Cv-208">
          <mxGeometry y="60" width="319" height="30" as="geometry" />
        </mxCell>
        <mxCell id="IeB_J5nd6xo2UKHGv0Cv-213" value="PK" style="shape=partialRectangle;overflow=hidden;connectable=0;fillColor=#d5e8d4;strokeColor=#82b366;top=0;left=0;bottom=0;right=0;fontStyle=1;" vertex="1" parent="IeB_J5nd6xo2UKHGv0Cv-212">
          <mxGeometry width="30" height="30" as="geometry">
            <mxRectangle width="30" height="30" as="alternateBounds" />
          </mxGeometry>
        </mxCell>
        <mxCell id="IeB_J5nd6xo2UKHGv0Cv-214" value="payment_id INT " style="shape=partialRectangle;overflow=hidden;connectable=0;fillColor=#ffe6cc;align=left;strokeColor=#d79b00;top=0;left=0;bottom=0;right=0;spacingLeft=6;fontStyle=5;" vertex="1" parent="IeB_J5nd6xo2UKHGv0Cv-212">
          <mxGeometry x="30" width="289" height="30" as="geometry">
            <mxRectangle width="289" height="30" as="alternateBounds" />
          </mxGeometry>
        </mxCell>
        <mxCell id="IeB_J5nd6xo2UKHGv0Cv-215" value="" style="shape=tableRow;horizontal=0;startSize=0;swimlaneHead=0;swimlaneBody=0;fillColor=none;collapsible=0;dropTarget=0;points=[[0,0.5],[1,0.5]];portConstraint=eastwest;strokeColor=inherit;top=0;left=0;right=0;bottom=0;" vertex="1" parent="IeB_J5nd6xo2UKHGv0Cv-208">
          <mxGeometry y="90" width="319" height="30" as="geometry" />
        </mxCell>
        <mxCell id="IeB_J5nd6xo2UKHGv0Cv-216" value="" style="shape=partialRectangle;overflow=hidden;connectable=0;fillColor=#ffe6cc;strokeColor=#d79b00;top=0;left=0;bottom=0;right=0;" vertex="1" parent="IeB_J5nd6xo2UKHGv0Cv-215">
          <mxGeometry width="30" height="30" as="geometry">
            <mxRectangle width="30" height="30" as="alternateBounds" />
          </mxGeometry>
        </mxCell>
        <mxCell id="IeB_J5nd6xo2UKHGv0Cv-217" value="amount " style="shape=partialRectangle;overflow=hidden;connectable=0;fillColor=#ffe6cc;align=left;strokeColor=#d79b00;top=0;left=0;bottom=0;right=0;spacingLeft=6;" vertex="1" parent="IeB_J5nd6xo2UKHGv0Cv-215">
          <mxGeometry x="30" width="289" height="30" as="geometry">
            <mxRectangle width="289" height="30" as="alternateBounds" />
          </mxGeometry>
        </mxCell>
        <mxCell id="IeB_J5nd6xo2UKHGv0Cv-218" value="" style="shape=tableRow;horizontal=0;startSize=0;swimlaneHead=0;swimlaneBody=0;fillColor=none;collapsible=0;dropTarget=0;points=[[0,0.5],[1,0.5]];portConstraint=eastwest;strokeColor=inherit;top=0;left=0;right=0;bottom=0;" vertex="1" parent="IeB_J5nd6xo2UKHGv0Cv-208">
          <mxGeometry y="120" width="319" height="30" as="geometry" />
        </mxCell>
        <mxCell id="IeB_J5nd6xo2UKHGv0Cv-219" value="" style="shape=partialRectangle;overflow=hidden;connectable=0;fillColor=#ffe6cc;strokeColor=#d79b00;top=0;left=0;bottom=0;right=0;" vertex="1" parent="IeB_J5nd6xo2UKHGv0Cv-218">
          <mxGeometry width="30" height="30" as="geometry">
            <mxRectangle width="30" height="30" as="alternateBounds" />
          </mxGeometry>
        </mxCell>
        <mxCell id="IeB_J5nd6xo2UKHGv0Cv-220" value="payment_method " style="shape=partialRectangle;overflow=hidden;connectable=0;fillColor=#ffe6cc;align=left;strokeColor=#d79b00;top=0;left=0;bottom=0;right=0;spacingLeft=6;" vertex="1" parent="IeB_J5nd6xo2UKHGv0Cv-218">
          <mxGeometry x="30" width="289" height="30" as="geometry">
            <mxRectangle width="289" height="30" as="alternateBounds" />
          </mxGeometry>
        </mxCell>
        <mxCell id="IeB_J5nd6xo2UKHGv0Cv-221" value="" style="shape=tableRow;horizontal=0;startSize=0;swimlaneHead=0;swimlaneBody=0;fillColor=none;collapsible=0;dropTarget=0;points=[[0,0.5],[1,0.5]];portConstraint=eastwest;strokeColor=inherit;top=0;left=0;right=0;bottom=0;" vertex="1" parent="IeB_J5nd6xo2UKHGv0Cv-208">
          <mxGeometry y="150" width="319" height="30" as="geometry" />
        </mxCell>
        <mxCell id="IeB_J5nd6xo2UKHGv0Cv-222" value="" style="shape=partialRectangle;overflow=hidden;connectable=0;fillColor=#ffe6cc;strokeColor=#d79b00;top=0;left=0;bottom=0;right=0;" vertex="1" parent="IeB_J5nd6xo2UKHGv0Cv-221">
          <mxGeometry width="30" height="30" as="geometry">
            <mxRectangle width="30" height="30" as="alternateBounds" />
          </mxGeometry>
        </mxCell>
        <mxCell id="IeB_J5nd6xo2UKHGv0Cv-223" value="transaction_datetime " style="shape=partialRectangle;overflow=hidden;connectable=0;fillColor=#ffe6cc;align=left;strokeColor=#d79b00;top=0;left=0;bottom=0;right=0;spacingLeft=6;" vertex="1" parent="IeB_J5nd6xo2UKHGv0Cv-221">
          <mxGeometry x="30" width="289" height="30" as="geometry">
            <mxRectangle width="289" height="30" as="alternateBounds" />
          </mxGeometry>
        </mxCell>
        <mxCell id="IeB_J5nd6xo2UKHGv0Cv-227" value="" style="edgeStyle=entityRelationEdgeStyle;fontSize=12;html=1;endArrow=ERoneToMany;rounded=0;" edge="1" parent="1" source="IeB_J5nd6xo2UKHGv0Cv-114" target="IeB_J5nd6xo2UKHGv0Cv-174">
          <mxGeometry width="100" height="100" relative="1" as="geometry">
            <mxPoint x="-560" y="240" as="sourcePoint" />
            <mxPoint x="-250" y="420" as="targetPoint" />
          </mxGeometry>
        </mxCell>
        <mxCell id="IeB_J5nd6xo2UKHGv0Cv-228" value="" style="edgeStyle=entityRelationEdgeStyle;fontSize=12;html=1;endArrow=ERoneToMany;rounded=0;" edge="1" parent="1" source="IeB_J5nd6xo2UKHGv0Cv-133" target="IeB_J5nd6xo2UKHGv0Cv-190">
          <mxGeometry width="100" height="100" relative="1" as="geometry">
            <mxPoint x="-510" y="430" as="sourcePoint" />
            <mxPoint x="-250" y="580" as="targetPoint" />
          </mxGeometry>
        </mxCell>
        <mxCell id="IeB_J5nd6xo2UKHGv0Cv-229" value="" style="edgeStyle=entityRelationEdgeStyle;fontSize=12;html=1;endArrow=ERoneToMany;rounded=0;" edge="1" parent="1" source="IeB_J5nd6xo2UKHGv0Cv-158" target="IeB_J5nd6xo2UKHGv0Cv-175">
          <mxGeometry width="100" height="100" relative="1" as="geometry">
            <mxPoint x="-100" y="330" as="sourcePoint" />
            <mxPoint y="230" as="targetPoint" />
          </mxGeometry>
        </mxCell>
        <mxCell id="IeB_J5nd6xo2UKHGv0Cv-230" value="" style="edgeStyle=entityRelationEdgeStyle;fontSize=12;html=1;endArrow=ERmandOne;startArrow=ERmandOne;rounded=0;" edge="1" parent="1" source="IeB_J5nd6xo2UKHGv0Cv-174" target="IeB_J5nd6xo2UKHGv0Cv-208">
          <mxGeometry width="100" height="100" relative="1" as="geometry">
            <mxPoint x="-20" y="740" as="sourcePoint" />
            <mxPoint x="240" y="100" as="targetPoint" />
          </mxGeometry>
        </mxCell>
      </root>
    </mxGraphModel>
  </diagram>
</mxfile>
